# xmcd CD database file generated by LOLA_Freedb v0.9beta0
# 
# Track frame offsets:
#      150
#      16969
#      36435
#      57544
#      78939
#      95610
#      113974
#      140422
#      159552
#      183073
#      202782
#      223452
#      246522
#      269624
# 
# Disc length: 3870 seconds
# 
# Revision: 1 
# Processed by: cddbd v1.5.1PL2 Copyright (c) Steve Scherf et al.
# Submitted via: LOLA_Freedb v0.9beta0
# 
DISCID=ce0f1c0e
DTITLE=Galea - Diary of a bad  housewife
DYEAR=1900
DGENRE=Blues
TTITLE0=Galea - You can't judge a book by the cover
TTITLE1=Come on in my kitchen
TTITLE2=My real daddy
TTITLE3=Queen shit
TTITLE4=Brand new key
TTITLE5=Can't let go
TTITLE6=One or two things
TTITLE7=Just your friends
TTITLE8=She's mean and evil
TTITLE9=Tipilina
TTITLE10=Truck drivin' man
TTITLE11=Dirty mother for you
TTITLE12=(She said that) Evil was her name
TTITLE13=Let's run together
EXTD=
EXTT0=
EXTT1=
EXTT2=
EXTT3=
EXTT4=
EXTT5=
EXTT6=
EXTT7=
EXTT8=
EXTT9=
EXTT10=
EXTT11=
EXTT12=
EXTT13=
PLAYORDER=
